<mxfile host="app.diagrams.net" agent="Mozilla/5.0 (Windows NT 10.0; Win64; x64) AppleWebKit/537.36 (KHTML, like Gecko) Chrome/126.0.0.0 YaBrowser/24.7.0.0 Safari/537.36" version="24.7.17">
  <diagram name="Страница — 1" id="dx9UHitfL7CGLRvb_oQa">
    <mxGraphModel dx="2607" dy="1424" grid="1" gridSize="10" guides="1" tooltips="1" connect="1" arrows="1" fold="1" page="1" pageScale="1" pageWidth="827" pageHeight="1169" math="0" shadow="0">
      <root>
        <mxCell id="0" />
        <mxCell id="1" parent="0" />
        <mxCell id="tVp4zjs1Q5-ZY6XvO2gA-8" style="edgeStyle=orthogonalEdgeStyle;rounded=0;orthogonalLoop=1;jettySize=auto;html=1;dashed=1;" edge="1" parent="1" source="tVp4zjs1Q5-ZY6XvO2gA-2" target="tVp4zjs1Q5-ZY6XvO2gA-7">
          <mxGeometry relative="1" as="geometry" />
        </mxCell>
        <mxCell id="tVp4zjs1Q5-ZY6XvO2gA-2" value="Препод" style="shape=umlActor;verticalLabelPosition=bottom;verticalAlign=top;html=1;outlineConnect=0;" vertex="1" parent="1">
          <mxGeometry x="20" y="130" width="30" height="60" as="geometry" />
        </mxCell>
        <mxCell id="tVp4zjs1Q5-ZY6XvO2gA-7" value="Создавать задачу" style="rounded=0;whiteSpace=wrap;html=1;fillColor=#d5e8d4;strokeColor=#82b366;fontStyle=1" vertex="1" parent="1">
          <mxGeometry x="110" y="130" width="110" height="60" as="geometry" />
        </mxCell>
        <mxCell id="tVp4zjs1Q5-ZY6XvO2gA-9" value="" style="swimlane;startSize=0;" vertex="1" parent="1">
          <mxGeometry x="291" y="70" width="950" height="310" as="geometry" />
        </mxCell>
        <mxCell id="tVp4zjs1Q5-ZY6XvO2gA-16" style="edgeStyle=orthogonalEdgeStyle;rounded=0;orthogonalLoop=1;jettySize=auto;html=1;entryX=0;entryY=0.5;entryDx=0;entryDy=0;" edge="1" parent="tVp4zjs1Q5-ZY6XvO2gA-9" source="tVp4zjs1Q5-ZY6XvO2gA-11" target="tVp4zjs1Q5-ZY6XvO2gA-15">
          <mxGeometry relative="1" as="geometry" />
        </mxCell>
        <mxCell id="tVp4zjs1Q5-ZY6XvO2gA-11" value="&lt;div&gt;[requiered]&lt;/div&gt;Указать название" style="rounded=0;whiteSpace=wrap;html=1;" vertex="1" parent="tVp4zjs1Q5-ZY6XvO2gA-9">
          <mxGeometry x="34" y="80" width="120" height="60" as="geometry" />
        </mxCell>
        <mxCell id="tVp4zjs1Q5-ZY6XvO2gA-13" style="edgeStyle=orthogonalEdgeStyle;rounded=0;orthogonalLoop=1;jettySize=auto;html=1;entryX=0.5;entryY=0;entryDx=0;entryDy=0;" edge="1" parent="tVp4zjs1Q5-ZY6XvO2gA-9" source="tVp4zjs1Q5-ZY6XvO2gA-12" target="tVp4zjs1Q5-ZY6XvO2gA-11">
          <mxGeometry relative="1" as="geometry" />
        </mxCell>
        <mxCell id="tVp4zjs1Q5-ZY6XvO2gA-12" value="" style="ellipse;whiteSpace=wrap;html=1;aspect=fixed;fillColor=#d5e8d4;strokeColor=#82b366;" vertex="1" parent="tVp4zjs1Q5-ZY6XvO2gA-9">
          <mxGeometry x="84" y="20" width="20" height="20" as="geometry" />
        </mxCell>
        <mxCell id="tVp4zjs1Q5-ZY6XvO2gA-18" style="edgeStyle=orthogonalEdgeStyle;rounded=0;orthogonalLoop=1;jettySize=auto;html=1;entryX=0;entryY=0.5;entryDx=0;entryDy=0;" edge="1" parent="tVp4zjs1Q5-ZY6XvO2gA-9" source="tVp4zjs1Q5-ZY6XvO2gA-15" target="tVp4zjs1Q5-ZY6XvO2gA-17">
          <mxGeometry relative="1" as="geometry" />
        </mxCell>
        <mxCell id="tVp4zjs1Q5-ZY6XvO2gA-15" value="&lt;div&gt;[requiered]&lt;/div&gt;Указать содержание" style="rounded=0;whiteSpace=wrap;html=1;" vertex="1" parent="tVp4zjs1Q5-ZY6XvO2gA-9">
          <mxGeometry x="190" y="80" width="120" height="60" as="geometry" />
        </mxCell>
        <mxCell id="tVp4zjs1Q5-ZY6XvO2gA-17" value="&lt;div&gt;[requiered]&lt;/div&gt;Указать ответ" style="rounded=0;whiteSpace=wrap;html=1;" vertex="1" parent="tVp4zjs1Q5-ZY6XvO2gA-9">
          <mxGeometry x="340" y="80" width="120" height="60" as="geometry" />
        </mxCell>
        <mxCell id="tVp4zjs1Q5-ZY6XvO2gA-27" style="edgeStyle=orthogonalEdgeStyle;rounded=0;orthogonalLoop=1;jettySize=auto;html=1;entryX=0.5;entryY=0;entryDx=0;entryDy=0;" edge="1" parent="tVp4zjs1Q5-ZY6XvO2gA-9" source="tVp4zjs1Q5-ZY6XvO2gA-22" target="tVp4zjs1Q5-ZY6XvO2gA-26">
          <mxGeometry relative="1" as="geometry" />
        </mxCell>
        <mxCell id="tVp4zjs1Q5-ZY6XvO2gA-22" value="&lt;div&gt;{isMeta}&lt;br&gt;[unrequiered]&lt;/div&gt;Указать метаинформацию (теги, сложность)" style="rounded=0;whiteSpace=wrap;html=1;" vertex="1" parent="tVp4zjs1Q5-ZY6XvO2gA-9">
          <mxGeometry x="725" y="70" width="130" height="80" as="geometry" />
        </mxCell>
        <mxCell id="tVp4zjs1Q5-ZY6XvO2gA-38" style="edgeStyle=orthogonalEdgeStyle;rounded=0;orthogonalLoop=1;jettySize=auto;html=1;entryX=0;entryY=0.5;entryDx=0;entryDy=0;" edge="1" parent="tVp4zjs1Q5-ZY6XvO2gA-9" source="tVp4zjs1Q5-ZY6XvO2gA-23" target="tVp4zjs1Q5-ZY6XvO2gA-31">
          <mxGeometry relative="1" as="geometry" />
        </mxCell>
        <mxCell id="tVp4zjs1Q5-ZY6XvO2gA-23" value="&lt;div&gt;[unrequiered]&lt;/div&gt;Указать время" style="rounded=0;whiteSpace=wrap;html=1;" vertex="1" parent="tVp4zjs1Q5-ZY6XvO2gA-9">
          <mxGeometry x="490" y="80" width="120" height="60" as="geometry" />
        </mxCell>
        <mxCell id="tVp4zjs1Q5-ZY6XvO2gA-24" value="" style="endArrow=classic;html=1;rounded=0;exitX=1;exitY=0.5;exitDx=0;exitDy=0;entryX=0;entryY=0.5;entryDx=0;entryDy=0;" edge="1" parent="tVp4zjs1Q5-ZY6XvO2gA-9" source="tVp4zjs1Q5-ZY6XvO2gA-17" target="tVp4zjs1Q5-ZY6XvO2gA-23">
          <mxGeometry width="50" height="50" relative="1" as="geometry">
            <mxPoint x="510" y="200" as="sourcePoint" />
            <mxPoint x="560" y="150" as="targetPoint" />
          </mxGeometry>
        </mxCell>
        <mxCell id="tVp4zjs1Q5-ZY6XvO2gA-34" style="edgeStyle=orthogonalEdgeStyle;rounded=0;orthogonalLoop=1;jettySize=auto;html=1;entryX=1;entryY=0.5;entryDx=0;entryDy=0;" edge="1" parent="tVp4zjs1Q5-ZY6XvO2gA-9" source="tVp4zjs1Q5-ZY6XvO2gA-26" target="tVp4zjs1Q5-ZY6XvO2gA-29">
          <mxGeometry relative="1" as="geometry" />
        </mxCell>
        <mxCell id="tVp4zjs1Q5-ZY6XvO2gA-37" value="true" style="edgeLabel;html=1;align=center;verticalAlign=middle;resizable=0;points=[];" vertex="1" connectable="0" parent="tVp4zjs1Q5-ZY6XvO2gA-34">
          <mxGeometry x="0.037" relative="1" as="geometry">
            <mxPoint as="offset" />
          </mxGeometry>
        </mxCell>
        <mxCell id="tVp4zjs1Q5-ZY6XvO2gA-26" value="" style="rhombus;whiteSpace=wrap;html=1;" vertex="1" parent="tVp4zjs1Q5-ZY6XvO2gA-9">
          <mxGeometry x="770" y="180" width="40" height="40" as="geometry" />
        </mxCell>
        <mxCell id="tVp4zjs1Q5-ZY6XvO2gA-28" value="Выложить в общий банк задач?" style="text;html=1;align=center;verticalAlign=middle;whiteSpace=wrap;rounded=0;" vertex="1" parent="tVp4zjs1Q5-ZY6XvO2gA-9">
          <mxGeometry x="760" y="240" width="60" height="30" as="geometry" />
        </mxCell>
        <mxCell id="tVp4zjs1Q5-ZY6XvO2gA-33" style="edgeStyle=orthogonalEdgeStyle;rounded=0;orthogonalLoop=1;jettySize=auto;html=1;entryX=0.5;entryY=1;entryDx=0;entryDy=0;" edge="1" parent="tVp4zjs1Q5-ZY6XvO2gA-9" source="tVp4zjs1Q5-ZY6XvO2gA-29" target="tVp4zjs1Q5-ZY6XvO2gA-31">
          <mxGeometry relative="1" as="geometry" />
        </mxCell>
        <mxCell id="tVp4zjs1Q5-ZY6XvO2gA-35" value="true" style="edgeLabel;html=1;align=center;verticalAlign=middle;resizable=0;points=[];" vertex="1" connectable="0" parent="tVp4zjs1Q5-ZY6XvO2gA-33">
          <mxGeometry x="-0.0667" y="4" relative="1" as="geometry">
            <mxPoint as="offset" />
          </mxGeometry>
        </mxCell>
        <mxCell id="tVp4zjs1Q5-ZY6XvO2gA-36" value="false" style="edgeLabel;html=1;align=center;verticalAlign=middle;resizable=0;points=[];" vertex="1" connectable="0" parent="tVp4zjs1Q5-ZY6XvO2gA-33">
          <mxGeometry x="-0.2" y="1" relative="1" as="geometry">
            <mxPoint as="offset" />
          </mxGeometry>
        </mxCell>
        <mxCell id="tVp4zjs1Q5-ZY6XvO2gA-29" value="" style="rhombus;whiteSpace=wrap;html=1;" vertex="1" parent="tVp4zjs1Q5-ZY6XvO2gA-9">
          <mxGeometry x="649" y="180" width="40" height="40" as="geometry" />
        </mxCell>
        <mxCell id="tVp4zjs1Q5-ZY6XvO2gA-30" value="{isMeta}" style="text;html=1;align=center;verticalAlign=middle;whiteSpace=wrap;rounded=0;" vertex="1" parent="tVp4zjs1Q5-ZY6XvO2gA-9">
          <mxGeometry x="589" y="185" width="60" height="30" as="geometry" />
        </mxCell>
        <mxCell id="tVp4zjs1Q5-ZY6XvO2gA-39" style="edgeStyle=orthogonalEdgeStyle;rounded=0;orthogonalLoop=1;jettySize=auto;html=1;entryX=0;entryY=0.5;entryDx=0;entryDy=0;" edge="1" parent="tVp4zjs1Q5-ZY6XvO2gA-9" source="tVp4zjs1Q5-ZY6XvO2gA-31" target="tVp4zjs1Q5-ZY6XvO2gA-22">
          <mxGeometry relative="1" as="geometry" />
        </mxCell>
        <mxCell id="tVp4zjs1Q5-ZY6XvO2gA-31" value="" style="rhombus;whiteSpace=wrap;html=1;" vertex="1" parent="tVp4zjs1Q5-ZY6XvO2gA-9">
          <mxGeometry x="649" y="90" width="40" height="40" as="geometry" />
        </mxCell>
        <mxCell id="tVp4zjs1Q5-ZY6XvO2gA-72" value="Создание и редактирование задачи" style="text;html=1;align=center;verticalAlign=middle;whiteSpace=wrap;rounded=0;fontStyle=1;fontSize=18;" vertex="1" parent="tVp4zjs1Q5-ZY6XvO2gA-9">
          <mxGeometry x="279" y="10" width="421" height="30" as="geometry" />
        </mxCell>
        <mxCell id="tVp4zjs1Q5-ZY6XvO2gA-10" style="edgeStyle=orthogonalEdgeStyle;rounded=0;orthogonalLoop=1;jettySize=auto;html=1;dashed=1;" edge="1" parent="1" source="tVp4zjs1Q5-ZY6XvO2gA-7">
          <mxGeometry relative="1" as="geometry">
            <mxPoint x="290" y="160" as="targetPoint" />
          </mxGeometry>
        </mxCell>
        <mxCell id="tVp4zjs1Q5-ZY6XvO2gA-48" style="edgeStyle=orthogonalEdgeStyle;rounded=0;orthogonalLoop=1;jettySize=auto;html=1;dashed=1;" edge="1" parent="1" source="tVp4zjs1Q5-ZY6XvO2gA-41" target="tVp4zjs1Q5-ZY6XvO2gA-47">
          <mxGeometry relative="1" as="geometry" />
        </mxCell>
        <mxCell id="tVp4zjs1Q5-ZY6XvO2gA-41" value="Мадиратор" style="shape=umlActor;verticalLabelPosition=bottom;verticalAlign=top;html=1;outlineConnect=0;" vertex="1" parent="1">
          <mxGeometry x="670" y="440" width="30" height="60" as="geometry" />
        </mxCell>
        <mxCell id="tVp4zjs1Q5-ZY6XvO2gA-47" value="Проверить задачу" style="rounded=0;whiteSpace=wrap;html=1;fillColor=#d5e8d4;strokeColor=#82b366;fontStyle=1" vertex="1" parent="1">
          <mxGeometry x="750" y="440" width="120" height="60" as="geometry" />
        </mxCell>
        <mxCell id="tVp4zjs1Q5-ZY6XvO2gA-66" style="edgeStyle=orthogonalEdgeStyle;rounded=0;orthogonalLoop=1;jettySize=auto;html=1;entryX=0.5;entryY=0;entryDx=0;entryDy=0;" edge="1" parent="1" source="tVp4zjs1Q5-ZY6XvO2gA-49" target="tVp4zjs1Q5-ZY6XvO2gA-64">
          <mxGeometry relative="1" as="geometry" />
        </mxCell>
        <mxCell id="tVp4zjs1Q5-ZY6XvO2gA-49" value="{isCorrect}&lt;div&gt;[requiered]&lt;/div&gt;&lt;div&gt;Выполнить проверку задачу на коррекцию&lt;/div&gt;" style="rounded=0;whiteSpace=wrap;html=1;" vertex="1" parent="1">
          <mxGeometry x="900" y="440" width="120" height="60" as="geometry" />
        </mxCell>
        <mxCell id="tVp4zjs1Q5-ZY6XvO2gA-50" value="&lt;div&gt;Скайнет&lt;/div&gt;" style="shape=umlActor;verticalLabelPosition=bottom;verticalAlign=top;html=1;outlineConnect=0;" vertex="1" parent="1">
          <mxGeometry x="570" y="440" width="30" height="60" as="geometry" />
        </mxCell>
        <mxCell id="tVp4zjs1Q5-ZY6XvO2gA-57" value="" style="shape=flexArrow;endArrow=classic;startArrow=classic;html=1;rounded=0;exitX=0.5;exitY=0.5;exitDx=0;exitDy=0;exitPerimeter=0;entryX=0.5;entryY=0.5;entryDx=0;entryDy=0;entryPerimeter=0;" edge="1" parent="1" source="tVp4zjs1Q5-ZY6XvO2gA-50" target="tVp4zjs1Q5-ZY6XvO2gA-41">
          <mxGeometry width="100" height="100" relative="1" as="geometry">
            <mxPoint x="710" y="660" as="sourcePoint" />
            <mxPoint x="810" y="560" as="targetPoint" />
          </mxGeometry>
        </mxCell>
        <mxCell id="tVp4zjs1Q5-ZY6XvO2gA-58" value="Взаимозаменяемые акторы" style="edgeLabel;html=1;align=center;verticalAlign=middle;resizable=0;points=[];" vertex="1" connectable="0" parent="tVp4zjs1Q5-ZY6XvO2gA-57">
          <mxGeometry x="0.0943" y="-6" relative="1" as="geometry">
            <mxPoint x="1" y="-46" as="offset" />
          </mxGeometry>
        </mxCell>
        <mxCell id="tVp4zjs1Q5-ZY6XvO2gA-59" style="edgeStyle=orthogonalEdgeStyle;rounded=0;orthogonalLoop=1;jettySize=auto;html=1;exitX=0.5;exitY=1;exitDx=0;exitDy=0;entryX=0.5;entryY=0;entryDx=0;entryDy=0;" edge="1" parent="1" source="tVp4zjs1Q5-ZY6XvO2gA-29" target="tVp4zjs1Q5-ZY6XvO2gA-49">
          <mxGeometry relative="1" as="geometry" />
        </mxCell>
        <mxCell id="tVp4zjs1Q5-ZY6XvO2gA-63" value="true" style="edgeLabel;html=1;align=center;verticalAlign=middle;resizable=0;points=[];" vertex="1" connectable="0" parent="tVp4zjs1Q5-ZY6XvO2gA-59">
          <mxGeometry x="-0.6292" y="-3" relative="1" as="geometry">
            <mxPoint as="offset" />
          </mxGeometry>
        </mxCell>
        <mxCell id="tVp4zjs1Q5-ZY6XvO2gA-62" value="" style="endArrow=classic;html=1;rounded=0;exitX=1;exitY=0.5;exitDx=0;exitDy=0;dashed=1;" edge="1" parent="1" source="tVp4zjs1Q5-ZY6XvO2gA-47" target="tVp4zjs1Q5-ZY6XvO2gA-49">
          <mxGeometry width="50" height="50" relative="1" as="geometry">
            <mxPoint x="940" y="600" as="sourcePoint" />
            <mxPoint x="990" y="550" as="targetPoint" />
          </mxGeometry>
        </mxCell>
        <mxCell id="tVp4zjs1Q5-ZY6XvO2gA-88" style="edgeStyle=orthogonalEdgeStyle;rounded=0;orthogonalLoop=1;jettySize=auto;html=1;entryX=0.5;entryY=0;entryDx=0;entryDy=0;" edge="1" parent="1" source="tVp4zjs1Q5-ZY6XvO2gA-64" target="tVp4zjs1Q5-ZY6XvO2gA-86">
          <mxGeometry relative="1" as="geometry" />
        </mxCell>
        <mxCell id="tVp4zjs1Q5-ZY6XvO2gA-90" value="true" style="edgeLabel;html=1;align=center;verticalAlign=middle;resizable=0;points=[];" vertex="1" connectable="0" parent="tVp4zjs1Q5-ZY6XvO2gA-88">
          <mxGeometry x="-0.4421" y="-1" relative="1" as="geometry">
            <mxPoint as="offset" />
          </mxGeometry>
        </mxCell>
        <mxCell id="tVp4zjs1Q5-ZY6XvO2gA-64" value="" style="rhombus;whiteSpace=wrap;html=1;" vertex="1" parent="1">
          <mxGeometry x="940" y="570" width="40" height="35" as="geometry" />
        </mxCell>
        <mxCell id="tVp4zjs1Q5-ZY6XvO2gA-65" value="{isCorrect}" style="text;html=1;align=center;verticalAlign=middle;whiteSpace=wrap;rounded=0;" vertex="1" parent="1">
          <mxGeometry x="990" y="570" width="60" height="30" as="geometry" />
        </mxCell>
        <mxCell id="tVp4zjs1Q5-ZY6XvO2gA-84" style="edgeStyle=orthogonalEdgeStyle;rounded=0;orthogonalLoop=1;jettySize=auto;html=1;entryX=0;entryY=0.5;entryDx=0;entryDy=0;dashed=1;" edge="1" parent="1" source="tVp4zjs1Q5-ZY6XvO2gA-67" target="tVp4zjs1Q5-ZY6XvO2gA-79">
          <mxGeometry relative="1" as="geometry" />
        </mxCell>
        <mxCell id="tVp4zjs1Q5-ZY6XvO2gA-67" value="Система" style="shape=umlActor;verticalLabelPosition=bottom;verticalAlign=top;html=1;outlineConnect=0;" vertex="1" parent="1">
          <mxGeometry x="480" y="830" width="30" height="60" as="geometry" />
        </mxCell>
        <mxCell id="tVp4zjs1Q5-ZY6XvO2gA-70" style="edgeStyle=orthogonalEdgeStyle;rounded=0;orthogonalLoop=1;jettySize=auto;html=1;entryX=0.078;entryY=1.007;entryDx=0;entryDy=0;entryPerimeter=0;" edge="1" parent="1" source="tVp4zjs1Q5-ZY6XvO2gA-64" target="tVp4zjs1Q5-ZY6XvO2gA-9">
          <mxGeometry relative="1" as="geometry">
            <Array as="points">
              <mxPoint x="365" y="590" />
            </Array>
          </mxGeometry>
        </mxCell>
        <mxCell id="tVp4zjs1Q5-ZY6XvO2gA-71" value="false" style="edgeLabel;html=1;align=center;verticalAlign=middle;resizable=0;points=[];" vertex="1" connectable="0" parent="tVp4zjs1Q5-ZY6XvO2gA-70">
          <mxGeometry x="-0.4439" relative="1" as="geometry">
            <mxPoint as="offset" />
          </mxGeometry>
        </mxCell>
        <mxCell id="tVp4zjs1Q5-ZY6XvO2gA-73" value="Редактировать задачу" style="rounded=0;whiteSpace=wrap;html=1;fillColor=#d5e8d4;strokeColor=#82b366;fontStyle=1" vertex="1" parent="1">
          <mxGeometry x="110" y="210" width="110" height="60" as="geometry" />
        </mxCell>
        <mxCell id="tVp4zjs1Q5-ZY6XvO2gA-74" style="edgeStyle=orthogonalEdgeStyle;rounded=0;orthogonalLoop=1;jettySize=auto;html=1;dashed=1;exitX=0.5;exitY=0.5;exitDx=0;exitDy=0;exitPerimeter=0;entryX=0;entryY=0.5;entryDx=0;entryDy=0;" edge="1" parent="1" source="tVp4zjs1Q5-ZY6XvO2gA-2" target="tVp4zjs1Q5-ZY6XvO2gA-73">
          <mxGeometry relative="1" as="geometry">
            <mxPoint x="60" y="170" as="sourcePoint" />
            <mxPoint x="120" y="170" as="targetPoint" />
          </mxGeometry>
        </mxCell>
        <mxCell id="tVp4zjs1Q5-ZY6XvO2gA-75" style="edgeStyle=orthogonalEdgeStyle;rounded=0;orthogonalLoop=1;jettySize=auto;html=1;dashed=1;exitX=1;exitY=0.5;exitDx=0;exitDy=0;entryX=0.003;entryY=0.289;entryDx=0;entryDy=0;entryPerimeter=0;" edge="1" parent="1" source="tVp4zjs1Q5-ZY6XvO2gA-73" target="tVp4zjs1Q5-ZY6XvO2gA-9">
          <mxGeometry relative="1" as="geometry">
            <mxPoint x="70" y="180" as="sourcePoint" />
            <mxPoint x="130" y="180" as="targetPoint" />
          </mxGeometry>
        </mxCell>
        <mxCell id="tVp4zjs1Q5-ZY6XvO2gA-78" value="" style="swimlane;startSize=0;" vertex="1" parent="1">
          <mxGeometry x="765" y="680" width="805" height="360" as="geometry" />
        </mxCell>
        <mxCell id="tVp4zjs1Q5-ZY6XvO2gA-86" value="Выполнить проверку на содержание подобной задачи в банке" style="rounded=0;whiteSpace=wrap;html=1;fillColor=#dae8fc;strokeColor=#6c8ebf;" vertex="1" parent="tVp4zjs1Q5-ZY6XvO2gA-78">
          <mxGeometry x="135" y="50" width="120" height="60" as="geometry" />
        </mxCell>
        <mxCell id="tVp4zjs1Q5-ZY6XvO2gA-105" style="edgeStyle=orthogonalEdgeStyle;rounded=0;orthogonalLoop=1;jettySize=auto;html=1;entryX=0.5;entryY=0;entryDx=0;entryDy=0;dashed=1;" edge="1" parent="tVp4zjs1Q5-ZY6XvO2gA-78" source="tVp4zjs1Q5-ZY6XvO2gA-89" target="tVp4zjs1Q5-ZY6XvO2gA-104">
          <mxGeometry relative="1" as="geometry" />
        </mxCell>
        <mxCell id="tVp4zjs1Q5-ZY6XvO2gA-89" value="Кнаб" style="shape=cylinder3;whiteSpace=wrap;html=1;boundedLbl=1;backgroundOutline=1;size=15;" vertex="1" parent="tVp4zjs1Q5-ZY6XvO2gA-78">
          <mxGeometry x="325" y="40" width="60" height="80" as="geometry" />
        </mxCell>
        <mxCell id="tVp4zjs1Q5-ZY6XvO2gA-92" style="edgeStyle=orthogonalEdgeStyle;rounded=0;orthogonalLoop=1;jettySize=auto;html=1;entryX=0;entryY=0.5;entryDx=0;entryDy=0;entryPerimeter=0;dashed=1;" edge="1" parent="tVp4zjs1Q5-ZY6XvO2gA-78" source="tVp4zjs1Q5-ZY6XvO2gA-86" target="tVp4zjs1Q5-ZY6XvO2gA-89">
          <mxGeometry relative="1" as="geometry" />
        </mxCell>
        <mxCell id="tVp4zjs1Q5-ZY6XvO2gA-93" value="={exists}" style="edgeLabel;html=1;align=center;verticalAlign=middle;resizable=0;points=[];" vertex="1" connectable="0" parent="tVp4zjs1Q5-ZY6XvO2gA-92">
          <mxGeometry x="-0.2713" y="1" relative="1" as="geometry">
            <mxPoint x="11" y="1" as="offset" />
          </mxGeometry>
        </mxCell>
        <mxCell id="tVp4zjs1Q5-ZY6XvO2gA-108" style="edgeStyle=orthogonalEdgeStyle;rounded=0;orthogonalLoop=1;jettySize=auto;html=1;entryX=1;entryY=0.5;entryDx=0;entryDy=0;dashed=1;" edge="1" parent="tVp4zjs1Q5-ZY6XvO2gA-78" source="tVp4zjs1Q5-ZY6XvO2gA-104" target="tVp4zjs1Q5-ZY6XvO2gA-106">
          <mxGeometry relative="1" as="geometry" />
        </mxCell>
        <mxCell id="tVp4zjs1Q5-ZY6XvO2gA-109" value="true" style="edgeLabel;html=1;align=center;verticalAlign=middle;resizable=0;points=[];" vertex="1" connectable="0" parent="tVp4zjs1Q5-ZY6XvO2gA-108">
          <mxGeometry x="-0.1562" y="1" relative="1" as="geometry">
            <mxPoint as="offset" />
          </mxGeometry>
        </mxCell>
        <mxCell id="tVp4zjs1Q5-ZY6XvO2gA-111" style="edgeStyle=orthogonalEdgeStyle;rounded=0;orthogonalLoop=1;jettySize=auto;html=1;entryX=0.5;entryY=0;entryDx=0;entryDy=0;" edge="1" parent="tVp4zjs1Q5-ZY6XvO2gA-78" source="tVp4zjs1Q5-ZY6XvO2gA-104" target="tVp4zjs1Q5-ZY6XvO2gA-110">
          <mxGeometry relative="1" as="geometry" />
        </mxCell>
        <mxCell id="tVp4zjs1Q5-ZY6XvO2gA-104" value="{exists}" style="rhombus;whiteSpace=wrap;html=1;" vertex="1" parent="tVp4zjs1Q5-ZY6XvO2gA-78">
          <mxGeometry x="331.25" y="160" width="47.5" height="50" as="geometry" />
        </mxCell>
        <mxCell id="tVp4zjs1Q5-ZY6XvO2gA-106" value="" style="ellipse;whiteSpace=wrap;html=1;aspect=fixed;fillColor=#f8cecc;strokeColor=#b85450;" vertex="1" parent="tVp4zjs1Q5-ZY6XvO2gA-78">
          <mxGeometry x="177.5" y="167.5" width="35" height="35" as="geometry" />
        </mxCell>
        <mxCell id="tVp4zjs1Q5-ZY6XvO2gA-112" style="edgeStyle=orthogonalEdgeStyle;rounded=0;orthogonalLoop=1;jettySize=auto;html=1;entryX=0.5;entryY=1;entryDx=0;entryDy=0;" edge="1" parent="tVp4zjs1Q5-ZY6XvO2gA-78" source="tVp4zjs1Q5-ZY6XvO2gA-110" target="tVp4zjs1Q5-ZY6XvO2gA-106">
          <mxGeometry relative="1" as="geometry" />
        </mxCell>
        <mxCell id="tVp4zjs1Q5-ZY6XvO2gA-110" value="Добавить задачу в банк" style="rounded=0;whiteSpace=wrap;html=1;" vertex="1" parent="tVp4zjs1Q5-ZY6XvO2gA-78">
          <mxGeometry x="296" y="240" width="120" height="60" as="geometry" />
        </mxCell>
        <mxCell id="tVp4zjs1Q5-ZY6XvO2gA-113" style="edgeStyle=orthogonalEdgeStyle;rounded=0;orthogonalLoop=1;jettySize=auto;html=1;entryX=1;entryY=0.5;entryDx=0;entryDy=0;entryPerimeter=0;dashed=1;shape=flexArrow;" edge="1" parent="tVp4zjs1Q5-ZY6XvO2gA-78" source="tVp4zjs1Q5-ZY6XvO2gA-110" target="tVp4zjs1Q5-ZY6XvO2gA-89">
          <mxGeometry relative="1" as="geometry">
            <Array as="points">
              <mxPoint x="435" y="270" />
              <mxPoint x="435" y="80" />
            </Array>
          </mxGeometry>
        </mxCell>
        <mxCell id="tVp4zjs1Q5-ZY6XvO2gA-114" value="Задача" style="edgeLabel;html=1;align=center;verticalAlign=middle;resizable=0;points=[];" vertex="1" connectable="0" parent="tVp4zjs1Q5-ZY6XvO2gA-113">
          <mxGeometry x="-0.1642" y="-1" relative="1" as="geometry">
            <mxPoint as="offset" />
          </mxGeometry>
        </mxCell>
        <mxCell id="tVp4zjs1Q5-ZY6XvO2gA-115" value="Выполнить проверку на содержание подобной задачи в личном банке" style="rounded=0;whiteSpace=wrap;html=1;fillColor=#dae8fc;strokeColor=#6c8ebf;" vertex="1" parent="tVp4zjs1Q5-ZY6XvO2gA-78">
          <mxGeometry x="462.5" y="50" width="120" height="60" as="geometry" />
        </mxCell>
        <mxCell id="tVp4zjs1Q5-ZY6XvO2gA-116" style="edgeStyle=orthogonalEdgeStyle;rounded=0;orthogonalLoop=1;jettySize=auto;html=1;entryX=0.5;entryY=0;entryDx=0;entryDy=0;dashed=1;" edge="1" parent="tVp4zjs1Q5-ZY6XvO2gA-78" source="tVp4zjs1Q5-ZY6XvO2gA-117" target="tVp4zjs1Q5-ZY6XvO2gA-123">
          <mxGeometry relative="1" as="geometry" />
        </mxCell>
        <mxCell id="tVp4zjs1Q5-ZY6XvO2gA-117" value="Личный Кнаб" style="shape=cylinder3;whiteSpace=wrap;html=1;boundedLbl=1;backgroundOutline=1;size=15;" vertex="1" parent="tVp4zjs1Q5-ZY6XvO2gA-78">
          <mxGeometry x="652.5" y="40" width="60" height="80" as="geometry" />
        </mxCell>
        <mxCell id="tVp4zjs1Q5-ZY6XvO2gA-118" style="edgeStyle=orthogonalEdgeStyle;rounded=0;orthogonalLoop=1;jettySize=auto;html=1;entryX=0;entryY=0.5;entryDx=0;entryDy=0;entryPerimeter=0;dashed=1;" edge="1" parent="tVp4zjs1Q5-ZY6XvO2gA-78" target="tVp4zjs1Q5-ZY6XvO2gA-117">
          <mxGeometry relative="1" as="geometry">
            <mxPoint x="582.5" y="80" as="sourcePoint" />
          </mxGeometry>
        </mxCell>
        <mxCell id="tVp4zjs1Q5-ZY6XvO2gA-119" value="={exists}" style="edgeLabel;html=1;align=center;verticalAlign=middle;resizable=0;points=[];" vertex="1" connectable="0" parent="tVp4zjs1Q5-ZY6XvO2gA-118">
          <mxGeometry x="-0.2713" y="1" relative="1" as="geometry">
            <mxPoint x="11" y="1" as="offset" />
          </mxGeometry>
        </mxCell>
        <mxCell id="tVp4zjs1Q5-ZY6XvO2gA-120" style="edgeStyle=orthogonalEdgeStyle;rounded=0;orthogonalLoop=1;jettySize=auto;html=1;entryX=1;entryY=0.5;entryDx=0;entryDy=0;dashed=1;" edge="1" parent="tVp4zjs1Q5-ZY6XvO2gA-78" source="tVp4zjs1Q5-ZY6XvO2gA-123" target="tVp4zjs1Q5-ZY6XvO2gA-124">
          <mxGeometry relative="1" as="geometry" />
        </mxCell>
        <mxCell id="tVp4zjs1Q5-ZY6XvO2gA-121" value="true" style="edgeLabel;html=1;align=center;verticalAlign=middle;resizable=0;points=[];" vertex="1" connectable="0" parent="tVp4zjs1Q5-ZY6XvO2gA-120">
          <mxGeometry x="-0.1562" y="1" relative="1" as="geometry">
            <mxPoint as="offset" />
          </mxGeometry>
        </mxCell>
        <mxCell id="tVp4zjs1Q5-ZY6XvO2gA-122" style="edgeStyle=orthogonalEdgeStyle;rounded=0;orthogonalLoop=1;jettySize=auto;html=1;entryX=0.5;entryY=0;entryDx=0;entryDy=0;" edge="1" parent="tVp4zjs1Q5-ZY6XvO2gA-78" source="tVp4zjs1Q5-ZY6XvO2gA-123" target="tVp4zjs1Q5-ZY6XvO2gA-126">
          <mxGeometry relative="1" as="geometry" />
        </mxCell>
        <mxCell id="tVp4zjs1Q5-ZY6XvO2gA-123" value="{exists}" style="rhombus;whiteSpace=wrap;html=1;" vertex="1" parent="tVp4zjs1Q5-ZY6XvO2gA-78">
          <mxGeometry x="658.75" y="160" width="47.5" height="50" as="geometry" />
        </mxCell>
        <mxCell id="tVp4zjs1Q5-ZY6XvO2gA-124" value="" style="ellipse;whiteSpace=wrap;html=1;aspect=fixed;fillColor=#f8cecc;strokeColor=#b85450;" vertex="1" parent="tVp4zjs1Q5-ZY6XvO2gA-78">
          <mxGeometry x="505" y="167.5" width="35" height="35" as="geometry" />
        </mxCell>
        <mxCell id="tVp4zjs1Q5-ZY6XvO2gA-125" style="edgeStyle=orthogonalEdgeStyle;rounded=0;orthogonalLoop=1;jettySize=auto;html=1;entryX=0.5;entryY=1;entryDx=0;entryDy=0;" edge="1" parent="tVp4zjs1Q5-ZY6XvO2gA-78" source="tVp4zjs1Q5-ZY6XvO2gA-126" target="tVp4zjs1Q5-ZY6XvO2gA-124">
          <mxGeometry relative="1" as="geometry" />
        </mxCell>
        <mxCell id="tVp4zjs1Q5-ZY6XvO2gA-126" value="Добавить задачу в банк" style="rounded=0;whiteSpace=wrap;html=1;" vertex="1" parent="tVp4zjs1Q5-ZY6XvO2gA-78">
          <mxGeometry x="623.5" y="240" width="120" height="60" as="geometry" />
        </mxCell>
        <mxCell id="tVp4zjs1Q5-ZY6XvO2gA-127" style="edgeStyle=orthogonalEdgeStyle;rounded=0;orthogonalLoop=1;jettySize=auto;html=1;entryX=1;entryY=0.5;entryDx=0;entryDy=0;entryPerimeter=0;dashed=1;shape=flexArrow;" edge="1" parent="tVp4zjs1Q5-ZY6XvO2gA-78" source="tVp4zjs1Q5-ZY6XvO2gA-126" target="tVp4zjs1Q5-ZY6XvO2gA-117">
          <mxGeometry relative="1" as="geometry">
            <Array as="points">
              <mxPoint x="762.5" y="270" />
              <mxPoint x="762.5" y="80" />
            </Array>
          </mxGeometry>
        </mxCell>
        <mxCell id="tVp4zjs1Q5-ZY6XvO2gA-128" value="Задача" style="edgeLabel;html=1;align=center;verticalAlign=middle;resizable=0;points=[];" vertex="1" connectable="0" parent="tVp4zjs1Q5-ZY6XvO2gA-127">
          <mxGeometry x="-0.1642" y="-1" relative="1" as="geometry">
            <mxPoint as="offset" />
          </mxGeometry>
        </mxCell>
        <mxCell id="tVp4zjs1Q5-ZY6XvO2gA-85" style="edgeStyle=orthogonalEdgeStyle;rounded=0;orthogonalLoop=1;jettySize=auto;html=1;entryX=0;entryY=0.5;entryDx=0;entryDy=0;dashed=1;" edge="1" parent="1" source="tVp4zjs1Q5-ZY6XvO2gA-79" target="tVp4zjs1Q5-ZY6XvO2gA-78">
          <mxGeometry relative="1" as="geometry" />
        </mxCell>
        <mxCell id="tVp4zjs1Q5-ZY6XvO2gA-79" value="Зафиксировать задачу" style="rounded=0;whiteSpace=wrap;html=1;fillColor=#d5e8d4;strokeColor=#82b366;fontStyle=1" vertex="1" parent="1">
          <mxGeometry x="600" y="830" width="120" height="60" as="geometry" />
        </mxCell>
        <mxCell id="tVp4zjs1Q5-ZY6XvO2gA-129" style="edgeStyle=orthogonalEdgeStyle;rounded=0;orthogonalLoop=1;jettySize=auto;html=1;entryX=0.5;entryY=0;entryDx=0;entryDy=0;" edge="1" parent="1" source="tVp4zjs1Q5-ZY6XvO2gA-26" target="tVp4zjs1Q5-ZY6XvO2gA-115">
          <mxGeometry relative="1" as="geometry" />
        </mxCell>
        <mxCell id="tVp4zjs1Q5-ZY6XvO2gA-130" value="false" style="edgeLabel;html=1;align=center;verticalAlign=middle;resizable=0;points=[];" vertex="1" connectable="0" parent="tVp4zjs1Q5-ZY6XvO2gA-129">
          <mxGeometry x="0.1894" y="-2" relative="1" as="geometry">
            <mxPoint as="offset" />
          </mxGeometry>
        </mxCell>
        <mxCell id="tVp4zjs1Q5-ZY6XvO2gA-131" value="&lt;font style=&quot;font-size: 20px;&quot;&gt;TaskCreated&lt;br&gt;&lt;/font&gt;" style="whiteSpace=wrap;html=1;aspect=fixed;" vertex="1" parent="1">
          <mxGeometry x="60" y="1270" width="240" height="240" as="geometry" />
        </mxCell>
        <mxCell id="tVp4zjs1Q5-ZY6XvO2gA-132" value="&lt;b&gt;&lt;font style=&quot;font-size: 24px;&quot;&gt;События задачи:&lt;/font&gt;&lt;/b&gt;&lt;div&gt;&lt;b&gt;&lt;font style=&quot;font-size: 24px;&quot;&gt;&lt;br&gt;&lt;/font&gt;&lt;/b&gt;&lt;/div&gt;" style="text;html=1;align=center;verticalAlign=middle;whiteSpace=wrap;rounded=0;" vertex="1" parent="1">
          <mxGeometry x="105" y="1190" width="120" height="40" as="geometry" />
        </mxCell>
        <mxCell id="tVp4zjs1Q5-ZY6XvO2gA-134" value="&lt;font style=&quot;font-size: 20px;&quot;&gt;TaskUpdated&lt;/font&gt;" style="whiteSpace=wrap;html=1;aspect=fixed;" vertex="1" parent="1">
          <mxGeometry x="320" y="1270" width="240" height="240" as="geometry" />
        </mxCell>
        <mxCell id="tVp4zjs1Q5-ZY6XvO2gA-135" value="&lt;font style=&quot;font-size: 20px;&quot;&gt;TaskRemoved&lt;/font&gt;" style="whiteSpace=wrap;html=1;aspect=fixed;" vertex="1" parent="1">
          <mxGeometry x="580" y="1270" width="240" height="240" as="geometry" />
        </mxCell>
        <mxCell id="tVp4zjs1Q5-ZY6XvO2gA-136" value="&lt;font style=&quot;font-size: 20px;&quot;&gt;TaskToCheck&lt;/font&gt;" style="whiteSpace=wrap;html=1;aspect=fixed;" vertex="1" parent="1">
          <mxGeometry x="840" y="1270" width="240" height="240" as="geometry" />
        </mxCell>
        <mxCell id="tVp4zjs1Q5-ZY6XvO2gA-137" value="&lt;font style=&quot;font-size: 20px;&quot;&gt;TaskUploadedToGlobal&lt;/font&gt;" style="whiteSpace=wrap;html=1;aspect=fixed;" vertex="1" parent="1">
          <mxGeometry x="1100" y="1270" width="240" height="240" as="geometry" />
        </mxCell>
      </root>
    </mxGraphModel>
  </diagram>
</mxfile>
